<svg xmlns="http://www.w3.org/2000/svg" xmlns:xlink="http://www.w3.org/1999/xlink" width="1024" zoomAndPan="magnify" viewBox="0 0 768 767.999994" height="1024" preserveAspectRatio="xMidYMid meet" version="1.0"><defs><g/><clipPath id="cbbab6d519"><path d="M 131 148 L 613 148 L 613 636 L 131 636 Z M 131 148 " clip-rule="nonzero"/></clipPath><clipPath id="5c3a4cddf4"><path d="M 289.800781 42.382812 L 714.359375 277.371094 L 468.109375 722.269531 L 43.554688 487.28125 Z M 289.800781 42.382812 " clip-rule="nonzero"/></clipPath><clipPath id="c7ddf9a09f"><path d="M 289.800781 42.382812 L 714.359375 277.371094 L 468.109375 722.269531 L 43.554688 487.28125 Z M 289.800781 42.382812 " clip-rule="nonzero"/></clipPath><clipPath id="922a059ee5"><path d="M 384 116 L 468 116 L 468 203 L 384 203 Z M 384 116 " clip-rule="nonzero"/></clipPath><clipPath id="fcde440d10"><path d="M 289.800781 42.382812 L 714.359375 277.371094 L 468.109375 722.269531 L 43.554688 487.28125 Z M 289.800781 42.382812 " clip-rule="nonzero"/></clipPath><clipPath id="79ee5009b4"><path d="M 289.800781 42.382812 L 714.359375 277.371094 L 468.109375 722.269531 L 43.554688 487.28125 Z M 289.800781 42.382812 " clip-rule="nonzero"/></clipPath><clipPath id="6615ea9662"><path d="M 142 151 L 624 151 L 624 639 L 142 639 Z M 142 151 " clip-rule="nonzero"/></clipPath><clipPath id="04bafdbf3c"><path d="M 300.128906 45.910156 L 724.6875 280.898438 L 478.441406 725.796875 L 53.882812 490.808594 Z M 300.128906 45.910156 " clip-rule="nonzero"/></clipPath><clipPath id="4e3dacadc1"><path d="M 300.128906 45.910156 L 724.6875 280.898438 L 478.441406 725.796875 L 53.882812 490.808594 Z M 300.128906 45.910156 " clip-rule="nonzero"/></clipPath><clipPath id="48cfbc3822"><path d="M 395 119 L 479 119 L 479 207 L 395 207 Z M 395 119 " clip-rule="nonzero"/></clipPath><clipPath id="12e674ea95"><path d="M 300.128906 45.910156 L 724.6875 280.898438 L 478.441406 725.796875 L 53.882812 490.808594 Z M 300.128906 45.910156 " clip-rule="nonzero"/></clipPath><clipPath id="fefa07e05c"><path d="M 300.128906 45.910156 L 724.6875 280.898438 L 478.441406 725.796875 L 53.882812 490.808594 Z M 300.128906 45.910156 " clip-rule="nonzero"/></clipPath></defs><rect x="-76.8" width="921.6" fill="#ffffff" y="-76.799999" height="921.599993" fill-opacity="1"/><rect x="-76.8" width="921.6" fill="#ffffff" y="-76.799999" height="921.599993" fill-opacity="1"/><g clip-path="url(#cbbab6d519)"><g clip-path="url(#5c3a4cddf4)"><g clip-path="url(#c7ddf9a09f)"><path fill="#6bc3b2" d="M 509.503906 201.269531 L 522.117188 210.722656 C 527.199219 214.503906 532.011719 218.597656 536.550781 223.011719 C 539.234375 225.597656 542.46875 228.058594 545.382812 231.339844 L 554.59375 241.410156 C 569.882812 259.054688 582.359375 278.503906 592.023438 299.757812 C 598.222656 313.546875 603.046875 327.804688 606.5 342.523438 C 609.949219 357.242188 611.960938 372.15625 612.535156 387.265625 C 612.890625 396.210938 612.742188 405.148438 612.09375 414.078125 C 611.445312 423.007812 610.304688 431.871094 608.664062 440.671875 C 607.023438 449.476562 604.894531 458.15625 602.285156 466.71875 C 599.671875 475.285156 596.589844 483.675781 593.035156 491.894531 C 590.984375 496.132812 588.875 500.53125 586.765625 504.871094 C 585.628906 506.929688 584.816406 509.171875 583.445312 511.503906 L 579.671875 517.691406 C 577.152344 521.808594 574.628906 525.976562 572.074219 530.152344 C 569.519531 534.332031 566.109375 538.167969 563.105469 542.230469 C 557.304688 550.578125 550.046875 557.664062 543.109375 565.246094 C 541.371094 567.15625 539.496094 568.921875 537.488281 570.546875 L 531.671875 575.660156 L 525.835938 580.816406 L 522.886719 583.378906 L 519.707031 585.675781 C 515.480469 588.714844 511.238281 591.742188 506.988281 594.765625 C 504.863281 596.386719 502.625 597.835938 500.277344 599.117188 L 493.40625 603.132812 C 484.40625 608.902344 474.429688 612.84375 464.675781 617.445312 C 459.707031 619.480469 454.585938 621.109375 449.417969 622.921875 L 441.726562 625.601562 L 433.847656 627.449219 C 428.53125 628.699219 423.246094 630.183594 417.867188 631.210938 L 401.476562 633.726562 C 379.625 635.957031 357.042969 636.304688 335.082031 632.269531 L 326.789062 631.039062 L 318.628906 629.023438 C 313.226562 627.617188 307.71875 626.398438 302.351562 624.824219 C 291.867188 620.847656 280.984375 617.730469 271.0625 612.398438 L 263.4375 608.742188 L 259.636719 606.90625 L 258.734375 606.40625 L 257.558594 605.757812 L 255.75 604.753906 L 241.6875 596.167969 C 236.90625 593.1875 232.320312 589.933594 227.929688 586.398438 L 221.273438 581.183594 L 217.875 578.578125 L 214.808594 575.722656 L 202.375 564.191406 C 198.28125 560.367188 194.847656 555.886719 191.070312 551.78125 L 185.523438 545.484375 C 183.707031 543.378906 182.21875 540.96875 180.53125 538.769531 L 170.738281 525.285156 C 165.332031 515.628906 159.070312 506.355469 154.867188 496.125 L 151.582031 488.554688 C 150.34375 486.097656 149.292969 483.5625 148.425781 480.949219 L 142.910156 465.371094 C 136.882812 444.453125 132.386719 423.097656 132.144531 401.78125 L 131.761719 393.828125 C 131.726562 391.121094 131.980469 388.574219 132.03125 385.914062 L 132.792969 370.207031 C 133.359375 365.007812 134.246094 359.855469 134.957031 354.738281 L 136.152344 347.09375 C 136.464844 344.582031 137.320312 342.070312 137.867188 339.578125 C 139.117188 334.597656 140.375 329.648438 141.605469 324.710938 C 142.832031 319.773438 144.898438 315.164062 146.488281 310.398438 L 149.046875 303.347656 C 149.808594 300.972656 150.742188 298.667969 151.851562 296.433594 C 153.996094 291.976562 156.109375 287.527344 158.230469 283.113281 C 159.359375 280.78125 160.5 278.480469 161.605469 276.191406 C 162.710938 273.898438 164.027344 272.15625 165.25 270.140625 C 167.664062 266.101562 170.039062 262.140625 172.367188 258.25 C 175.214844 254.339844 178.039062 250.449219 180.847656 246.574219 C 182.234375 244.652344 183.640625 242.742188 185.027344 240.824219 C 186.410156 238.902344 188.066406 237.316406 189.570312 235.570312 L 198.585938 225.210938 C 201.773438 221.976562 205.058594 218.902344 208.265625 215.785156 C 214.585938 209.71875 221.226562 204.019531 228.179688 198.691406 C 240.660156 189.222656 253.925781 181.019531 267.972656 174.082031 C 282.019531 167.148438 296.59375 161.605469 311.703125 157.453125 C 335.144531 151.015625 359.019531 147.992188 383.324219 148.390625 C 398.933594 148.921875 414.375 150.8125 429.648438 154.058594 L 445.726562 157.984375 L 439.132812 180.140625 L 424.617188 176.351562 C 410.789062 173.171875 396.792969 171.222656 382.621094 170.5 C 360.449219 169.800781 338.617188 172.203125 317.125 177.710938 C 303.203125 181.296875 289.746094 186.164062 276.75 192.320312 C 263.757812 198.472656 251.460938 205.796875 239.863281 214.296875 C 233.390625 219.097656 227.195312 224.234375 221.28125 229.710938 C 218.308594 232.554688 215.214844 235.328125 212.273438 238.164062 C 209.335938 241 206.652344 244.433594 203.804688 247.589844 C 202.382812 249.191406 200.96875 250.773438 199.519531 252.367188 C 198.074219 253.960938 197.039062 255.882812 195.671875 257.523438 C 193.101562 260.910156 190.503906 264.335938 187.90625 267.765625 C 185.484375 271.65625 183.042969 275.582031 180.582031 279.542969 C 179.445312 281.601562 178.078125 283.53125 176.835938 285.535156 L 174.007812 291.277344 C 171.96875 295.347656 169.921875 299.4375 167.859375 303.546875 C 166.796875 305.59375 165.890625 307.710938 165.152344 309.898438 L 162.6875 316.4375 C 161.089844 320.925781 159.078125 325.191406 158.027344 329.714844 C 156.972656 334.238281 155.632812 338.898438 154.335938 343.476562 C 153.75 345.84375 152.941406 348.082031 152.542969 350.550781 L 151.308594 357.636719 C 150.574219 362.414062 149.625 367.1875 149.023438 372.011719 C 148.421875 376.839844 148.402344 381.777344 148.070312 386.699219 C 147.945312 389.160156 147.652344 391.628906 147.6875 394.09375 L 147.921875 401.535156 C 147.804688 421.46875 151.722656 441.539062 157.039062 461.308594 L 161.878906 475.976562 C 162.65625 478.441406 163.605469 480.839844 164.722656 483.167969 L 167.878906 490.292969 C 171.628906 500.027344 177.398438 508.785156 182.359375 518.035156 L 191.289062 531.042969 C 192.800781 533.167969 194.265625 535.378906 195.820312 537.421875 L 200.949219 543.457031 C 204.46875 547.394531 207.625 551.695312 211.449219 555.371094 L 222.945312 566.410156 L 225.816406 569.183594 L 228.90625 571.621094 L 235.101562 576.5 C 239.183594 579.941406 243.472656 583.105469 247.96875 585.988281 L 261.902344 594.800781 L 263.695312 595.792969 L 264.144531 596.042969 C 264.351562 596.15625 263.941406 595.929688 264.332031 596.148438 L 265.195312 596.625 L 268.792969 598.429688 L 275.96875 602.023438 C 285.394531 607.238281 295.570312 610.320312 305.621094 614.351562 C 310.722656 615.964844 315.9375 617.183594 321.109375 618.621094 L 328.863281 620.683594 L 336.765625 621.992188 C 357.769531 626.25 379.328125 626.195312 400.375 624.40625 L 416.121094 622.371094 C 421.308594 621.449219 426.453125 620.023438 431.457031 618.949219 L 439.128906 617.175781 L 446.589844 614.71875 C 451.535156 613.023438 456.554688 611.578125 461.390625 609.6875 C 470.867188 605.390625 480.609375 601.722656 489.363281 596.300781 L 496.070312 592.539062 C 498.347656 591.363281 500.523438 590.023438 502.597656 588.519531 L 515.128906 579.8125 L 518.242188 577.636719 L 521.15625 575.191406 L 526.875 570.292969 L 532.617188 565.40625 C 534.582031 563.878906 536.40625 562.199219 538.09375 560.371094 C 544.820312 553.074219 552.167969 546.308594 557.800781 538.40625 C 560.71875 534.644531 563.898438 530.894531 566.683594 526.925781 C 569.472656 522.960938 571.902344 518.660156 574.484375 514.578125 L 578.351562 508.46875 C 579.378906 506.617188 580.507812 504.285156 581.605469 502.203125 C 583.71875 497.996094 585.851562 493.800781 587.964844 489.597656 C 591.585938 481.589844 594.75 473.410156 597.457031 465.050781 C 600.164062 456.691406 602.398438 448.207031 604.160156 439.601562 C 605.917969 430.992188 607.195312 422.3125 607.984375 413.5625 C 608.773438 404.808594 609.074219 396.042969 608.882812 387.257812 C 608.558594 372.324219 606.808594 357.554688 603.632812 342.957031 C 600.457031 328.359375 595.917969 314.199219 590.015625 300.476562 C 580.738281 279.234375 568.640625 259.746094 553.726562 242.007812 L 544.699219 231.847656 C 541.929688 228.59375 538.769531 226.09375 536.132812 223.480469 C 531.675781 218.992188 526.941406 214.820312 521.929688 210.96875 Z M 509.503906 201.269531 " fill-opacity="1" fill-rule="nonzero"/></g></g></g><g clip-path="url(#922a059ee5)"><g clip-path="url(#fcde440d10)"><g clip-path="url(#79ee5009b4)"><path fill="#6bc3b2" d="M 384.855469 191.519531 L 435.777344 167.019531 L 411.269531 116.117188 L 443.261719 127.320312 L 467.773438 178.222656 L 416.882812 202.714844 Z M 384.855469 191.519531 " fill-opacity="1" fill-rule="nonzero"/></g></g></g><g clip-path="url(#6615ea9662)"><g clip-path="url(#04bafdbf3c)"><g clip-path="url(#4e3dacadc1)"><path fill="#006fee" d="M 519.832031 204.792969 L 532.449219 214.25 C 537.527344 218.027344 542.339844 222.125 546.882812 226.539062 C 549.5625 229.125 552.796875 231.585938 555.710938 234.867188 L 564.921875 244.9375 C 580.210938 262.582031 592.691406 282.03125 602.351562 303.285156 C 608.550781 317.074219 613.378906 331.332031 616.828125 346.050781 C 620.277344 360.769531 622.292969 375.683594 622.867188 390.792969 C 623.21875 399.738281 623.070312 408.675781 622.421875 417.605469 C 621.777344 426.535156 620.632812 435.398438 618.992188 444.199219 C 617.351562 453 615.226562 461.683594 612.613281 470.246094 C 610 478.8125 606.917969 487.203125 603.367188 495.417969 C 601.3125 499.660156 599.203125 504.054688 597.09375 508.398438 C 595.957031 510.457031 595.148438 512.695312 593.777344 515.027344 L 590 521.21875 C 587.480469 525.335938 584.957031 529.503906 582.402344 533.679688 C 579.851562 537.855469 576.4375 541.691406 573.433594 545.757812 C 567.632812 554.105469 560.378906 561.1875 553.4375 568.773438 C 551.699219 570.683594 549.824219 572.449219 547.816406 574.074219 L 542 579.1875 L 536.164062 584.34375 L 533.214844 586.90625 L 530.035156 589.203125 C 525.808594 592.242188 521.570312 595.269531 517.316406 598.292969 C 515.191406 599.914062 512.953125 601.363281 510.605469 602.640625 L 503.734375 606.660156 C 494.734375 612.429688 484.757812 616.371094 475.007812 620.972656 C 470.035156 623.007812 464.917969 624.632812 459.746094 626.449219 L 452.054688 629.128906 L 444.175781 630.976562 C 438.859375 632.226562 433.578125 633.710938 428.195312 634.738281 L 411.808594 637.25 C 389.953125 639.484375 367.371094 639.832031 345.414062 635.796875 L 337.117188 634.566406 L 328.957031 632.550781 C 323.554688 631.144531 318.046875 629.921875 312.683594 628.351562 C 302.195312 624.375 291.316406 621.257812 281.390625 615.925781 L 273.765625 612.269531 L 269.96875 610.433594 L 269.0625 609.933594 L 267.890625 609.285156 L 266.078125 608.28125 L 252.015625 599.691406 C 247.234375 596.714844 242.648438 593.457031 238.257812 589.925781 L 231.601562 584.710938 L 228.207031 582.105469 L 225.136719 579.25 L 212.703125 567.71875 C 208.609375 563.894531 205.175781 559.414062 201.402344 555.308594 L 195.855469 549.011719 C 194.039062 546.90625 192.546875 544.496094 190.863281 542.296875 L 181.066406 528.8125 C 175.664062 519.15625 169.398438 509.882812 165.195312 499.652344 L 161.910156 492.082031 C 160.675781 489.625 159.621094 487.089844 158.757812 484.476562 L 153.242188 468.898438 C 147.210938 447.980469 142.714844 426.625 142.472656 405.308594 L 142.089844 397.355469 C 142.054688 394.648438 142.308594 392.101562 142.359375 389.4375 L 143.121094 373.734375 C 143.6875 368.535156 144.578125 363.382812 145.285156 358.265625 L 146.480469 350.621094 C 146.796875 348.109375 147.648438 345.597656 148.195312 343.101562 C 149.445312 338.125 150.707031 333.175781 151.933594 328.238281 C 153.160156 323.300781 155.226562 318.691406 156.816406 313.925781 L 159.375 306.875 C 160.136719 304.5 161.070312 302.195312 162.183594 299.960938 C 164.328125 295.503906 166.4375 291.054688 168.5625 286.640625 C 169.691406 284.308594 170.828125 282.007812 171.933594 279.71875 C 173.042969 277.425781 174.355469 275.679688 175.578125 273.667969 C 177.992188 269.628906 180.367188 265.667969 182.699219 261.777344 C 185.542969 257.867188 188.367188 253.976562 191.175781 250.101562 C 192.5625 248.179688 193.96875 246.269531 195.355469 244.347656 C 196.742188 242.429688 198.394531 240.84375 199.902344 239.097656 L 208.914062 228.738281 C 212.101562 225.503906 215.390625 222.429688 218.59375 219.3125 C 224.914062 213.246094 231.554688 207.546875 238.511719 202.21875 C 250.992188 192.75 264.253906 184.546875 278.300781 177.609375 C 292.347656 170.675781 306.925781 165.128906 322.03125 160.980469 C 345.472656 154.539062 369.347656 151.519531 393.65625 151.917969 C 409.261719 152.449219 424.703125 154.339844 439.976562 157.585938 L 456.054688 161.511719 L 449.464844 183.667969 L 434.949219 179.878906 C 421.121094 176.699219 407.121094 174.746094 392.949219 174.023438 C 370.777344 173.328125 348.945312 175.730469 327.457031 181.238281 C 313.53125 184.824219 300.074219 189.691406 287.078125 195.84375 C 274.085938 202 261.789062 209.324219 250.195312 217.824219 C 243.71875 222.625 237.523438 227.761719 231.609375 233.238281 C 228.640625 236.082031 225.542969 238.855469 222.605469 241.691406 C 219.664062 244.527344 216.984375 247.960938 214.136719 251.117188 C 212.710938 252.71875 211.296875 254.300781 209.851562 255.894531 C 208.40625 257.484375 207.367188 259.410156 206.003906 261.046875 C 203.429688 264.4375 200.832031 267.863281 198.238281 271.292969 C 195.8125 275.183594 193.371094 279.109375 190.910156 283.070312 C 189.773438 285.128906 188.40625 287.058594 187.164062 289.058594 L 184.335938 294.804688 C 182.296875 298.875 180.25 302.964844 178.191406 307.074219 C 177.125 309.121094 176.222656 311.238281 175.480469 313.425781 L 173.019531 319.964844 C 171.417969 324.453125 169.410156 328.71875 168.355469 333.242188 C 167.304688 337.765625 165.960938 342.425781 164.664062 347.003906 C 164.082031 349.367188 163.269531 351.609375 162.871094 354.078125 L 161.640625 361.160156 C 160.902344 365.941406 159.953125 370.710938 159.351562 375.539062 C 158.75 380.367188 158.734375 385.304688 158.398438 390.226562 C 158.277344 392.683594 157.984375 395.15625 158.015625 397.621094 L 158.253906 405.0625 C 158.132812 424.996094 162.050781 445.066406 167.371094 464.835938 L 172.207031 479.503906 C 172.984375 481.96875 173.933594 484.367188 175.054688 486.695312 L 178.207031 493.820312 C 181.957031 503.554688 187.726562 512.3125 192.6875 521.5625 L 201.617188 534.570312 C 203.128906 536.695312 204.59375 538.90625 206.148438 540.949219 L 211.277344 546.984375 C 214.796875 550.921875 217.953125 555.222656 221.777344 558.898438 L 233.273438 569.9375 L 236.148438 572.710938 L 239.234375 575.144531 L 245.429688 580.027344 C 249.511719 583.46875 253.800781 586.632812 258.296875 589.515625 L 272.234375 598.328125 L 274.023438 599.320312 L 274.476562 599.570312 C 274.679688 599.683594 274.269531 599.457031 274.660156 599.671875 L 275.523438 600.152344 L 279.125 601.957031 L 286.300781 605.550781 C 295.722656 610.765625 305.898438 613.847656 315.953125 617.878906 C 321.054688 619.492188 326.265625 620.710938 331.4375 622.148438 L 339.191406 624.210938 L 347.097656 625.519531 C 368.097656 629.777344 389.660156 629.722656 410.703125 627.933594 L 426.453125 625.898438 C 431.636719 624.976562 436.78125 623.550781 441.785156 622.476562 L 449.460938 620.703125 L 456.921875 618.246094 C 461.867188 616.546875 466.882812 615.105469 471.722656 613.214844 C 481.195312 608.914062 490.941406 605.25 499.695312 599.828125 L 506.398438 596.066406 C 508.675781 594.890625 510.851562 593.550781 512.925781 592.042969 L 525.457031 583.335938 L 528.570312 581.164062 L 531.484375 578.714844 L 537.207031 573.820312 L 542.945312 568.933594 C 544.910156 567.40625 546.734375 565.726562 548.421875 563.898438 C 555.148438 556.601562 562.496094 549.835938 568.132812 541.933594 C 571.046875 538.171875 574.226562 534.421875 577.011719 530.453125 C 579.800781 526.484375 582.234375 522.1875 584.816406 518.105469 L 588.679688 511.996094 C 589.707031 510.144531 590.835938 507.8125 591.933594 505.730469 C 594.046875 501.523438 596.179688 497.328125 598.292969 493.125 C 601.914062 485.117188 605.078125 476.9375 607.789062 468.578125 C 610.496094 460.21875 612.726562 451.734375 614.488281 443.125 C 616.246094 434.519531 617.523438 425.839844 618.3125 417.089844 C 619.101562 408.335938 619.402344 399.570312 619.214844 390.785156 C 618.886719 375.847656 617.136719 361.082031 613.960938 346.484375 C 610.789062 331.886719 606.246094 317.726562 600.34375 304.003906 C 591.066406 282.761719 578.972656 263.273438 564.054688 245.53125 L 555.027344 235.375 C 552.257812 232.121094 549.097656 229.621094 546.460938 227.003906 C 542.007812 222.519531 537.273438 218.347656 532.257812 214.496094 Z M 519.832031 204.792969 " fill-opacity="1" fill-rule="nonzero"/></g></g></g><g clip-path="url(#48cfbc3822)"><g clip-path="url(#12e674ea95)"><g clip-path="url(#fefa07e05c)"><path fill="#006fee" d="M 395.183594 195.046875 L 446.109375 170.546875 L 421.597656 119.644531 L 453.59375 130.847656 L 478.101562 181.75 L 427.210938 206.242188 Z M 395.183594 195.046875 " fill-opacity="1" fill-rule="nonzero"/></g></g></g><g fill="#006fee" fill-opacity="1"><g transform="translate(268.083974, 488.391514)"><g><path d="M 135.796875 0 L 63.5625 -77.828125 L 129.90625 -140 L 105 -140 L 44.234375 -82.875 L 44.234375 -209.984375 L 26.03125 -209.984375 L 26.03125 0 L 44.234375 0 L 44.234375 -73.078125 L 110.3125 0 Z M 135.796875 0 "/></g></g></g><g fill="#006fee" fill-opacity="1"><g transform="translate(405.558847, 488.391514)"><g><path d="M 87.078125 -140 L 56.5625 -140 L 56.5625 -190.390625 L 38.078125 -190.390625 L 38.078125 -140 L 7.28125 -140 L 7.28125 -122.640625 L 38.078125 -122.640625 L 38.078125 0 L 56.5625 0 L 56.5625 -122.640625 L 87.078125 -122.640625 Z M 87.078125 -140 "/></g></g></g></svg>