<svg xmlns="http://www.w3.org/2000/svg" xmlns:xlink="http://www.w3.org/1999/xlink" width="1024" zoomAndPan="magnify" viewBox="0 0 768 767.999994" height="1024" preserveAspectRatio="xMidYMid meet" version="1.0"><defs><g/><clipPath id="e1ef12b633"><path d="M 30 54 L 705 54 L 705 736 L 30 736 Z M 30 54 " clip-rule="nonzero"/></clipPath><clipPath id="0c223dbc22"><path d="M 252.128906 -94.242188 L 846.476562 234.726562 L 501.75 857.550781 L -92.601562 528.585938 Z M 252.128906 -94.242188 " clip-rule="nonzero"/></clipPath><clipPath id="d35456524f"><path d="M 252.128906 -94.242188 L 846.476562 234.726562 L 501.75 857.550781 L -92.601562 528.585938 Z M 252.128906 -94.242188 " clip-rule="nonzero"/></clipPath><clipPath id="fe68723ca8"><path d="M 385 8 L 502 8 L 502 131 L 385 131 Z M 385 8 " clip-rule="nonzero"/></clipPath><clipPath id="7e501b2305"><path d="M 252.128906 -94.242188 L 846.476562 234.726562 L 501.75 857.550781 L -92.601562 528.585938 Z M 252.128906 -94.242188 " clip-rule="nonzero"/></clipPath><clipPath id="a334d48d76"><path d="M 252.128906 -94.242188 L 846.476562 234.726562 L 501.75 857.550781 L -92.601562 528.585938 Z M 252.128906 -94.242188 " clip-rule="nonzero"/></clipPath><clipPath id="cf37402ee1"><path d="M 45 59 L 719 59 L 719 741 L 45 741 Z M 45 59 " clip-rule="nonzero"/></clipPath><clipPath id="4e416b89d9"><path d="M 266.589844 -89.304688 L 860.9375 239.664062 L 516.210938 862.488281 L -78.140625 533.523438 Z M 266.589844 -89.304688 " clip-rule="nonzero"/></clipPath><clipPath id="ce78cfa621"><path d="M 266.589844 -89.304688 L 860.9375 239.664062 L 516.210938 862.488281 L -78.140625 533.523438 Z M 266.589844 -89.304688 " clip-rule="nonzero"/></clipPath><clipPath id="e618da17e0"><path d="M 399 13 L 516 13 L 516 136 L 399 136 Z M 399 13 " clip-rule="nonzero"/></clipPath><clipPath id="1dbdb84038"><path d="M 266.589844 -89.304688 L 860.9375 239.664062 L 516.210938 862.488281 L -78.140625 533.523438 Z M 266.589844 -89.304688 " clip-rule="nonzero"/></clipPath><clipPath id="6f820836dc"><path d="M 266.589844 -89.304688 L 860.9375 239.664062 L 516.210938 862.488281 L -78.140625 533.523438 Z M 266.589844 -89.304688 " clip-rule="nonzero"/></clipPath></defs><g clip-path="url(#e1ef12b633)"><g clip-path="url(#0c223dbc22)"><g clip-path="url(#d35456524f)"><path fill="#6bc3b2" d="M 559.695312 128.1875 L 577.355469 141.425781 C 584.46875 146.714844 591.203125 152.449219 597.5625 158.628906 C 601.316406 162.25 605.84375 165.695312 609.925781 170.285156 L 622.816406 184.386719 C 633.464844 196.671875 643.179688 209.65625 651.957031 223.339844 C 660.734375 237.027344 668.488281 251.269531 675.21875 266.070312 C 683.898438 285.375 690.652344 305.328125 695.484375 325.933594 C 700.3125 346.542969 703.132812 367.417969 703.933594 388.570312 C 704.429688 401.09375 704.222656 413.605469 703.316406 426.105469 C 702.410156 438.605469 700.808594 451.019531 698.511719 463.339844 C 696.214844 475.660156 693.238281 487.816406 689.582031 499.804688 C 685.925781 511.792969 681.609375 523.539062 676.636719 535.042969 C 673.765625 540.980469 670.808594 547.132812 667.859375 553.214844 C 666.265625 556.09375 665.132812 559.230469 663.210938 562.496094 L 657.925781 571.160156 C 654.398438 576.921875 650.867188 582.753906 647.292969 588.605469 C 643.714844 594.453125 638.9375 599.820312 634.734375 605.511719 C 626.613281 617.195312 616.457031 627.117188 606.742188 637.730469 C 604.304688 640.402344 601.683594 642.878906 598.871094 645.152344 L 590.730469 652.3125 L 582.558594 659.53125 L 578.429688 663.117188 L 573.976562 666.332031 C 568.0625 670.585938 562.128906 674.824219 556.171875 679.054688 C 553.199219 681.328125 550.066406 683.355469 546.78125 685.148438 L 537.160156 690.769531 C 524.558594 698.847656 510.59375 704.363281 496.941406 710.808594 C 489.984375 713.65625 482.816406 715.933594 475.578125 718.476562 L 464.8125 722.222656 L 453.78125 724.8125 C 446.339844 726.5625 438.945312 728.640625 431.414062 730.078125 L 408.46875 733.597656 C 377.875 736.722656 346.261719 737.210938 315.519531 731.558594 L 303.90625 729.835938 L 292.488281 727.015625 C 284.921875 725.046875 277.210938 723.339844 269.699219 721.136719 C 255.019531 715.570312 239.789062 711.203125 225.894531 703.742188 L 215.21875 698.621094 L 209.902344 696.054688 L 208.636719 695.355469 L 206.992188 694.445312 L 204.457031 693.042969 L 184.773438 681.019531 C 178.078125 676.847656 171.65625 672.289062 165.511719 667.347656 L 156.195312 660.042969 L 151.4375 656.394531 L 147.140625 652.398438 L 129.734375 636.257812 C 124.007812 630.902344 119.199219 624.628906 113.914062 618.882812 L 106.148438 610.066406 C 103.605469 607.117188 101.519531 603.742188 99.160156 600.667969 L 85.449219 581.789062 C 77.882812 568.269531 69.113281 555.289062 63.226562 540.96875 L 58.632812 530.371094 C 56.898438 526.929688 55.425781 523.378906 54.214844 519.722656 L 46.492188 497.914062 C 38.050781 468.632812 31.761719 438.734375 31.417969 408.890625 L 30.882812 397.757812 C 30.835938 393.96875 31.191406 390.402344 31.257812 386.675781 L 32.328125 364.691406 C 33.117188 357.414062 34.363281 350.203125 35.355469 343.035156 L 37.027344 332.335938 C 37.46875 328.816406 38.664062 325.300781 39.429688 321.808594 C 41.179688 314.839844 42.945312 307.914062 44.664062 301 C 46.382812 294.085938 49.277344 287.636719 51.5 280.964844 L 55.082031 271.09375 C 56.148438 267.769531 57.457031 264.542969 59.011719 261.414062 C 62.011719 255.175781 64.96875 248.945312 67.941406 242.765625 C 69.523438 239.5 71.117188 236.28125 72.664062 233.074219 C 74.214844 229.867188 76.054688 227.425781 77.765625 224.605469 C 81.144531 218.953125 84.46875 213.402344 87.730469 207.960938 C 91.714844 202.488281 95.667969 197.039062 99.601562 191.613281 C 101.539062 188.925781 103.511719 186.25 105.449219 183.5625 C 107.390625 180.871094 109.707031 178.65625 111.816406 176.210938 L 124.433594 161.707031 C 128.894531 157.179688 133.496094 152.875 137.984375 148.511719 C 146.832031 140.015625 156.128906 132.042969 165.863281 124.582031 C 183.335938 111.324219 201.902344 99.839844 221.570312 90.132812 C 241.234375 80.421875 261.640625 72.660156 282.789062 66.851562 C 299.113281 62.367188 315.671875 59.0625 332.46875 56.9375 C 349.265625 54.808594 366.128906 53.886719 383.054688 54.164062 C 404.90625 54.90625 426.519531 57.550781 447.902344 62.097656 L 470.414062 67.59375 L 461.183594 98.609375 L 440.863281 93.308594 C 421.503906 88.855469 401.90625 86.125 382.070312 85.113281 C 366.625 84.625 351.226562 85.226562 335.867188 86.921875 C 320.511719 88.613281 305.347656 91.375 290.382812 95.210938 C 270.890625 100.230469 252.046875 107.046875 233.859375 115.660156 C 215.667969 124.273438 198.453125 134.53125 182.222656 146.429688 C 173.15625 153.148438 164.484375 160.339844 156.207031 168.003906 C 152.046875 171.984375 147.710938 175.871094 143.597656 179.839844 C 139.480469 183.808594 135.726562 188.617188 131.742188 193.035156 C 129.746094 195.277344 127.765625 197.496094 125.742188 199.722656 C 123.71875 201.953125 122.265625 204.648438 120.355469 206.9375 C 116.753906 211.679688 113.117188 216.480469 109.484375 221.28125 C 106.09375 226.726562 102.675781 232.222656 99.230469 237.765625 C 97.636719 240.648438 95.722656 243.351562 93.984375 246.152344 L 90.023438 254.195312 C 87.171875 259.894531 84.304688 265.617188 81.417969 271.371094 C 79.929688 274.238281 78.664062 277.203125 77.628906 280.261719 L 74.179688 289.417969 C 71.941406 295.703125 69.128906 301.671875 67.652344 308.003906 C 66.179688 314.339844 64.300781 320.863281 62.484375 327.269531 C 61.667969 330.582031 60.535156 333.71875 59.976562 337.171875 L 58.25 347.089844 C 57.21875 353.78125 55.890625 360.460938 55.046875 367.21875 C 54.207031 373.976562 54.179688 380.886719 53.714844 387.78125 C 53.542969 391.222656 53.132812 394.683594 53.179688 398.132812 L 53.507812 408.550781 C 53.339844 436.453125 58.824219 464.550781 66.273438 492.230469 L 73.046875 512.761719 C 74.132812 516.210938 75.460938 519.570312 77.03125 522.832031 L 81.445312 532.800781 C 86.695312 546.429688 94.773438 558.691406 101.71875 571.640625 L 114.21875 589.847656 C 116.332031 592.824219 118.382812 595.917969 120.5625 598.78125 L 127.738281 607.230469 C 132.667969 612.742188 137.085938 618.761719 142.441406 623.910156 L 158.535156 639.363281 L 162.554688 643.246094 L 166.878906 646.652344 L 175.550781 653.488281 C 181.265625 658.304688 187.269531 662.734375 193.5625 666.769531 L 213.074219 679.109375 L 215.578125 680.496094 L 216.214844 680.847656 C 216.5 681.007812 215.925781 680.6875 216.472656 680.992188 L 217.683594 681.660156 L 222.71875 684.183594 L 232.765625 689.21875 C 245.957031 696.519531 260.203125 700.832031 274.277344 706.476562 C 281.417969 708.734375 288.714844 710.441406 295.957031 712.453125 L 306.8125 715.339844 L 317.878906 717.171875 C 347.277344 723.136719 377.460938 723.058594 406.921875 720.550781 L 428.96875 717.699219 C 436.230469 716.414062 443.429688 714.417969 450.433594 712.914062 L 461.179688 710.429688 L 471.625 706.992188 C 478.546875 704.613281 485.570312 702.59375 492.34375 699.945312 C 505.609375 693.929688 519.25 688.796875 531.503906 681.207031 L 540.890625 675.941406 C 544.078125 674.296875 547.125 672.417969 550.027344 670.3125 L 567.574219 658.121094 L 571.929688 655.078125 L 576.007812 651.652344 L 584.015625 644.796875 L 592.054688 637.957031 C 594.800781 635.816406 597.355469 633.46875 599.71875 630.910156 C 609.136719 620.691406 619.421875 611.222656 627.3125 600.160156 C 631.394531 594.894531 635.84375 589.640625 639.746094 584.085938 C 643.648438 578.535156 647.050781 572.515625 650.667969 566.800781 L 656.078125 558.246094 C 657.515625 555.652344 659.09375 552.390625 660.632812 549.476562 C 663.589844 543.589844 666.578125 537.714844 669.535156 531.828125 C 674.605469 520.621094 679.035156 509.167969 682.828125 497.464844 C 686.617188 485.761719 689.742188 473.886719 692.207031 461.835938 C 694.671875 449.785156 696.457031 437.632812 697.5625 425.382812 C 698.667969 413.132812 699.085938 400.859375 698.820312 388.5625 C 698.363281 367.652344 695.914062 346.980469 691.46875 326.542969 C 687.027344 306.105469 680.671875 286.28125 672.40625 267.070312 C 665.945312 252.28125 658.460938 238.03125 649.949219 224.316406 C 641.4375 210.605469 631.992188 197.570312 621.605469 185.21875 L 608.964844 171 C 605.089844 166.445312 600.667969 162.945312 596.976562 159.28125 C 590.738281 153 584.109375 147.160156 577.09375 141.765625 Z M 559.695312 128.1875 " fill-opacity="1" fill-rule="nonzero"/></g></g></g><g clip-path="url(#fe68723ca8)"><g clip-path="url(#7e501b2305)"><g clip-path="url(#a334d48d76)"><path fill="#6bc3b2" d="M 385.199219 114.539062 L 456.488281 80.242188 L 422.171875 8.984375 L 466.964844 24.667969 L 501.277344 95.929688 L 430.035156 130.210938 Z M 385.199219 114.539062 " fill-opacity="1" fill-rule="nonzero"/></g></g></g><g clip-path="url(#cf37402ee1)"><g clip-path="url(#4e416b89d9)"><g clip-path="url(#ce78cfa621)"><path fill="#006fee" d="M 574.15625 133.125 L 591.816406 146.363281 C 598.929688 151.652344 605.664062 157.386719 612.023438 163.566406 C 615.777344 167.1875 620.304688 170.632812 624.382812 175.222656 L 637.277344 189.320312 C 647.925781 201.609375 657.640625 214.59375 666.417969 228.277344 C 675.195312 241.964844 682.949219 256.207031 689.675781 271.007812 C 698.355469 290.3125 705.113281 310.265625 709.941406 330.871094 C 714.773438 351.480469 717.589844 372.355469 718.394531 393.507812 C 718.890625 406.03125 718.683594 418.542969 717.777344 431.042969 C 716.871094 443.542969 715.269531 455.957031 712.972656 468.277344 C 710.675781 480.597656 707.699219 492.753906 704.042969 504.742188 C 700.382812 516.726562 696.070312 528.476562 691.097656 539.980469 C 688.226562 545.917969 685.269531 552.070312 682.320312 558.152344 C 680.722656 561.03125 679.589844 564.167969 677.671875 567.433594 L 672.386719 576.097656 C 668.859375 581.859375 665.328125 587.691406 661.753906 593.542969 C 658.175781 599.390625 653.398438 604.757812 649.195312 610.449219 C 641.074219 622.132812 630.917969 632.054688 621.203125 642.667969 C 618.765625 645.339844 616.140625 647.816406 613.332031 650.089844 L 605.191406 657.25 L 597.019531 664.46875 L 592.890625 668.050781 L 588.4375 671.269531 C 582.523438 675.523438 576.585938 679.761719 570.632812 683.992188 C 567.660156 686.265625 564.527344 688.292969 561.242188 690.085938 L 551.617188 695.707031 C 539.019531 703.785156 525.054688 709.300781 511.402344 715.746094 C 504.445312 718.59375 497.277344 720.871094 490.039062 723.410156 L 479.269531 727.160156 L 468.242188 729.75 C 460.800781 731.5 453.402344 733.578125 445.871094 735.015625 L 422.925781 738.535156 C 392.335938 741.660156 360.71875 742.148438 329.980469 736.496094 L 318.367188 734.773438 L 306.945312 731.953125 C 299.378906 729.984375 291.671875 728.277344 284.160156 726.074219 C 269.480469 720.507812 254.246094 716.140625 240.355469 708.679688 L 229.679688 703.558594 L 224.363281 700.992188 L 223.09375 700.292969 L 221.453125 699.382812 L 218.917969 697.980469 L 199.234375 685.957031 C 192.539062 681.785156 186.117188 677.226562 179.96875 672.285156 L 170.652344 664.980469 L 165.898438 661.332031 L 161.601562 657.335938 L 144.195312 641.191406 C 138.464844 635.839844 133.660156 629.566406 128.375 623.820312 L 120.609375 615.003906 C 118.066406 612.054688 115.980469 608.679688 113.621094 605.605469 L 99.910156 586.726562 C 92.339844 573.207031 83.570312 560.226562 77.6875 545.90625 L 73.09375 535.308594 C 71.359375 531.867188 69.886719 528.316406 68.675781 524.660156 L 60.953125 502.851562 C 52.511719 473.570312 46.21875 443.671875 45.878906 413.828125 L 45.34375 402.695312 C 45.296875 398.90625 45.652344 395.339844 45.71875 391.613281 L 46.789062 369.628906 C 47.578125 362.351562 48.824219 355.140625 49.816406 347.972656 L 51.488281 337.273438 C 51.929688 333.753906 53.125 330.238281 53.890625 326.746094 C 55.640625 319.777344 57.402344 312.851562 59.125 305.9375 C 60.84375 299.023438 63.734375 292.574219 65.960938 285.902344 L 69.542969 276.03125 C 70.605469 272.707031 71.917969 269.480469 73.46875 266.351562 C 76.472656 260.113281 79.429688 253.882812 82.402344 247.703125 C 83.980469 244.4375 85.574219 241.21875 87.125 238.011719 C 88.671875 234.804688 90.515625 232.363281 92.222656 229.542969 C 95.605469 223.890625 98.925781 218.339844 102.191406 212.898438 C 106.171875 207.425781 110.128906 201.976562 114.0625 196.550781 C 116 193.863281 117.96875 191.1875 119.910156 188.5 C 121.851562 185.808594 124.167969 183.59375 126.273438 181.148438 L 138.890625 166.644531 C 143.355469 162.117188 147.957031 157.8125 152.441406 153.449219 C 161.292969 144.953125 170.585938 136.980469 180.324219 129.519531 C 197.796875 116.261719 216.363281 104.777344 236.027344 95.066406 C 255.691406 85.359375 276.097656 77.597656 297.246094 71.789062 C 313.574219 67.304688 330.132812 64 346.929688 61.875 C 363.726562 59.746094 380.589844 58.824219 397.515625 59.101562 C 419.363281 59.84375 440.980469 62.488281 462.363281 67.035156 L 484.871094 72.53125 L 475.644531 103.546875 L 455.324219 98.246094 C 435.964844 93.792969 416.367188 91.0625 396.527344 90.050781 C 381.085938 89.5625 365.6875 90.164062 350.328125 91.855469 C 334.972656 93.550781 319.808594 96.3125 304.84375 100.148438 C 285.351562 105.167969 266.507812 111.984375 248.316406 120.597656 C 230.125 129.210938 212.914062 139.46875 196.679688 151.367188 C 187.617188 158.082031 178.945312 165.277344 170.667969 172.941406 C 166.503906 176.921875 162.171875 180.808594 158.058594 184.777344 C 153.941406 188.746094 150.1875 193.554688 146.199219 197.972656 C 144.207031 200.214844 142.226562 202.429688 140.203125 204.660156 C 138.179688 206.890625 136.726562 209.585938 134.816406 211.875 C 131.214844 216.617188 127.578125 221.417969 123.945312 226.21875 C 120.550781 231.664062 117.132812 237.160156 113.6875 242.703125 C 112.09375 245.585938 110.183594 248.289062 108.445312 251.089844 L 104.484375 259.132812 C 101.632812 264.832031 98.761719 270.554688 95.878906 276.308594 C 94.386719 279.175781 93.125 282.140625 92.089844 285.199219 L 88.640625 294.351562 C 86.402344 300.640625 83.585938 306.609375 82.113281 312.941406 C 80.640625 319.277344 78.761719 325.800781 76.945312 332.207031 C 76.128906 335.519531 74.996094 338.65625 74.4375 342.109375 L 72.710938 352.027344 C 71.679688 358.71875 70.351562 365.398438 69.507812 372.15625 C 68.664062 378.914062 68.640625 385.824219 68.175781 392.71875 C 68 396.160156 67.589844 399.621094 67.640625 403.070312 L 67.96875 413.488281 C 67.800781 441.390625 73.285156 469.488281 80.730469 497.167969 L 87.503906 517.699219 C 88.59375 521.148438 89.921875 524.507812 91.488281 527.769531 L 95.90625 537.738281 C 101.15625 551.367188 109.234375 563.628906 116.175781 576.578125 L 128.675781 594.785156 C 130.792969 597.761719 132.84375 600.855469 135.023438 603.71875 L 142.199219 612.167969 C 147.125 617.679688 151.546875 623.699219 156.898438 628.847656 L 172.992188 644.300781 L 177.015625 648.183594 L 181.339844 651.589844 L 190.011719 658.425781 C 195.726562 663.242188 201.730469 667.671875 208.023438 671.703125 L 227.535156 684.046875 L 230.039062 685.433594 L 230.671875 685.785156 C 230.960938 685.945312 230.386719 685.625 230.933594 685.929688 L 232.140625 686.597656 L 237.179688 689.121094 L 247.226562 694.15625 C 260.417969 701.457031 274.664062 705.769531 288.738281 711.414062 C 295.878906 713.671875 303.175781 715.378906 310.414062 717.390625 L 321.273438 720.277344 L 332.335938 722.109375 C 361.738281 728.074219 391.921875 727.996094 421.382812 725.488281 L 443.429688 722.636719 C 450.6875 721.351562 457.890625 719.355469 464.894531 717.847656 L 475.636719 715.367188 L 486.082031 711.929688 C 493.007812 709.550781 500.03125 707.53125 506.804688 704.882812 C 520.066406 698.867188 533.707031 693.734375 545.960938 686.144531 L 555.347656 680.878906 C 558.539062 679.234375 561.582031 677.355469 564.488281 675.246094 L 582.03125 663.058594 L 586.390625 660.015625 L 590.46875 656.589844 L 598.476562 649.734375 L 606.515625 642.894531 C 609.261719 640.753906 611.816406 638.40625 614.179688 635.847656 C 623.597656 625.628906 633.882812 616.160156 641.773438 605.097656 C 645.851562 599.832031 650.300781 594.578125 654.203125 589.023438 C 658.105469 583.472656 661.511719 577.453125 665.125 571.738281 L 670.539062 563.183594 C 671.976562 560.589844 673.554688 557.328125 675.09375 554.414062 C 678.050781 548.527344 681.039062 542.652344 683.996094 536.765625 C 689.066406 525.558594 693.496094 514.105469 697.285156 502.402344 C 701.078125 490.699219 704.203125 478.824219 706.667969 466.773438 C 709.128906 454.722656 710.914062 442.570312 712.019531 430.320312 C 713.128906 418.070312 713.546875 405.796875 713.28125 393.5 C 712.824219 372.589844 710.375 351.917969 705.929688 331.480469 C 701.488281 311.042969 695.132812 291.21875 686.863281 272.007812 C 680.40625 257.21875 672.921875 242.96875 664.410156 229.253906 C 655.898438 215.542969 646.449219 202.507812 636.0625 190.15625 L 623.425781 175.9375 C 619.550781 171.382812 615.128906 167.882812 611.433594 164.21875 C 605.199219 157.9375 598.570312 152.097656 591.550781 146.703125 Z M 574.15625 133.125 " fill-opacity="1" fill-rule="nonzero"/></g></g></g><g clip-path="url(#e618da17e0)"><g clip-path="url(#1dbdb84038)"><g clip-path="url(#6f820836dc)"><path fill="#006fee" d="M 399.65625 119.476562 L 470.945312 85.179688 L 436.632812 13.921875 L 481.425781 29.605469 L 515.738281 100.863281 L 444.492188 135.148438 Z M 399.65625 119.476562 " fill-opacity="1" fill-rule="nonzero"/></g></g></g><g fill="#006fee" fill-opacity="1"><g transform="translate(221.725626, 530.140821)"><g><path d="M 190.109375 0 L 88.984375 -108.96875 L 181.875 -195.984375 L 146.984375 -195.984375 L 61.9375 -116.015625 L 61.9375 -293.96875 L 36.453125 -293.96875 L 36.453125 0 L 61.9375 0 L 61.9375 -102.296875 L 154.4375 0 Z M 190.109375 0 "/></g></g></g><g fill="#006fee" fill-opacity="1"><g transform="translate(414.180863, 530.140821)"><g><path d="M 121.90625 -195.984375 L 79.171875 -195.984375 L 79.171875 -266.53125 L 53.3125 -266.53125 L 53.3125 -195.984375 L 10.1875 -195.984375 L 10.1875 -171.6875 L 53.3125 -171.6875 L 53.3125 0 L 79.171875 0 L 79.171875 -171.6875 L 121.90625 -171.6875 Z M 121.90625 -195.984375 "/></g></g></g></svg>